<svg xmlns="http://www.w3.org/2000/svg" viewBox="0 0 1200 1200" role="img" aria-labelledby="title desc">
  <title id="title">Organize Your PC recognition mark</title>
  <desc id="desc">A gold and light emblem showing folders, memory, and a guidance path for the Organize Your PC file advisor.</desc>
  <defs>
    <radialGradient id="bg" cx="50%" cy="42%" r="70%">
      <stop offset="0%" stop-color="#ffffff"/>
      <stop offset="100%" stop-color="#f8fafc"/>
    </radialGradient>
    <linearGradient id="gold" x1="0%" y1="0%" x2="100%" y2="100%">
      <stop offset="0%" stop-color="#fff2a8"/>
      <stop offset="35%" stop-color="#e7c45a"/>
      <stop offset="65%" stop-color="#b98522"/>
      <stop offset="100%" stop-color="#f7d56b"/>
    </linearGradient>
    <linearGradient id="goldSoft" x1="0%" y1="0%" x2="100%" y2="100%">
      <stop offset="0%" stop-color="#ffeaa0"/>
      <stop offset="100%" stop-color="#b68020"/>
    </linearGradient>
    <filter id="glow" x="-20%" y="-20%" width="140%" height="140%">
      <feDropShadow dx="0" dy="10" stdDeviation="14" flood-color="#0f172a" flood-opacity="0.20"/>
      <feDropShadow dx="0" dy="0" stdDeviation="3" flood-color="#f6d46b" flood-opacity="0.32"/>
    </filter>
  </defs>

  <rect width="1200" height="1200" fill="url(#bg)"/>

  <g filter="url(#glow)">
    <circle cx="600" cy="455" r="355" fill="none" stroke="url(#gold)" stroke-width="14"/>
    <path d="M250 470 C250 325 365 210 510 205" fill="none" stroke="url(#gold)" stroke-width="4" opacity="0.65" stroke-dasharray="7 18"/>
    <path d="M950 470 C950 325 835 210 690 205" fill="none" stroke="url(#gold)" stroke-width="4" opacity="0.65" stroke-dasharray="7 18"/>

    <g stroke="url(#gold)" stroke-width="10" fill="none" stroke-linecap="round" stroke-linejoin="round">
      <path d="M600 245 V330"/>
      <path d="M600 330 H410 Q390 330 390 350 V405"/>
      <path d="M600 330 H600 V405"/>
      <path d="M600 330 H790 Q810 330 810 350 V405"/>
    </g>

    <g fill="url(#goldSoft)">
      <path d="M545 170 h70 l18 18 h72 q18 0 18 18 v55 q0 18-18 18 h-160 q-18 0-18-18 v-73 q0-18 18-18z"/>
      <path d="M330 390 h70 l18 18 h72 q18 0 18 18 v55 q0 18-18 18 h-160 q-18 0-18-18 v-73 q0-18 18-18z"/>
      <path d="M545 390 h70 l18 18 h72 q18 0 18 18 v55 q0 18-18 18 h-160 q-18 0-18-18 v-73 q0-18 18-18z"/>
      <path d="M760 390 h70 l18 18 h72 q18 0 18 18 v55 q0 18-18 18 h-160 q-18 0-18-18 v-73 q0-18 18-18z"/>
    </g>

    <path d="M405 575 h205 l42 38 h210 q24 0 24 24 v140 q0 24-24 24 h-457 q-24 0-24-24 v-178 q0-24 24-24z" fill="url(#goldSoft)" opacity="0.85"/>
    <path d="M430 625 h410 q26 0 26 26 v150 q0 26-26 26 h-410 q-26 0-26-26 v-150 q0-26 26-26z" fill="url(#gold)"/>

    <g fill="#050812">
      <path d="M604 700 c-38 3-67 34-67 73 0 27 14 51 35 64 v37 h92 v-41 c25-13 42-39 42-69 0-39-30-68-69-65-10-1-20 0-33 1z"/>
    </g>
    <g stroke="url(#gold)" stroke-width="5" fill="#050812">
      <circle cx="610" cy="727" r="8" fill="url(#gold)"/>
      <circle cx="648" cy="733" r="8" fill="url(#gold)"/>
      <circle cx="628" cy="762" r="8" fill="url(#gold)"/>
      <circle cx="670" cy="779" r="8" fill="url(#gold)"/>
      <circle cx="600" cy="788" r="8" fill="url(#gold)"/>
      <path d="M610 727 L648 733 L628 762 L670 779 M628 762 L600 788 M610 727 L600 788 M648 733 L670 779"/>
    </g>

    <path d="M600 825 C520 875 485 930 550 958 C660 1005 575 1065 510 1090" fill="none" stroke="url(#gold)" stroke-width="34" stroke-linecap="round"/>
    <path d="M650 855 C770 895 800 972 704 1047" fill="none" stroke="url(#gold)" stroke-width="30" stroke-linecap="round" opacity="0.75"/>
    <path d="M600 1035 l42 85 -42-22 -42 22z" fill="url(#gold)"/>

    <text x="600" y="1110" text-anchor="middle" font-family="Georgia, 'Times New Roman', serif" font-size="74" fill="url(#gold)">Organize Your PC</text>
    <text x="600" y="1160" text-anchor="middle" font-family="Arial, Helvetica, sans-serif" font-size="34" fill="#9a6b16">A memory-based file advisor</text>
  </g>
</svg>
